<svg xmlns="http://www.w3.org/2000/svg" width="121.9" height="35" viewBox="0 0 121.9 35"><rect class="svg__rect" x="0" y="0" width="64.92" height="35" fill="#C1D72F"/><rect class="svg__rect" x="62.92" y="0" width="58.980000000000004" height="35" fill="#5D9741"/><path class="svg__text" d="M13.95 18.19L13.95 18.19L13.95 17.39Q13.95 16.19 14.38 15.27Q14.80 14.35 15.60 13.85Q16.40 13.35 17.45 13.35L17.45 13.35Q18.86 13.35 19.73 14.12Q20.59 14.89 20.73 16.29L20.73 16.29L19.25 16.29Q19.14 15.37 18.71 14.96Q18.28 14.55 17.45 14.55L17.45 14.55Q16.48 14.55 15.97 15.26Q15.45 15.96 15.44 17.33L15.44 17.33L15.44 18.09Q15.44 19.47 15.93 20.20Q16.43 20.92 17.38 20.92L17.38 20.92Q18.25 20.92 18.69 20.53Q19.13 20.14 19.25 19.22L19.25 19.22L20.73 19.22Q20.60 20.59 19.72 21.35Q18.84 22.12 17.38 22.12L17.38 22.12Q16.36 22.12 15.59 21.63Q14.81 21.15 14.39 20.26Q13.97 19.37 13.95 18.19ZM26.52 22L25.04 22L25.04 13.47L28.04 13.47Q29.52 13.47 30.32 14.13Q31.12 14.79 31.12 16.05L31.12 16.05Q31.12 16.90 30.71 17.48Q30.30 18.06 29.56 18.37L29.56 18.37L31.47 21.92L31.47 22L29.89 22L28.17 18.71L26.52 18.71L26.52 22ZM26.52 14.66L26.52 17.52L28.05 17.52Q28.80 17.52 29.22 17.15Q29.64 16.77 29.64 16.11L29.64 16.11Q29.64 15.43 29.25 15.05Q28.86 14.68 28.09 14.66L28.09 14.66L26.52 14.66ZM41.09 22L35.52 22L35.52 13.47L41.05 13.47L41.05 14.66L37.00 14.66L37.00 17.02L40.50 17.02L40.50 18.19L37.00 18.19L37.00 20.82L41.09 20.82L41.09 22ZM38.74 12.92L37.60 12.92L38.74 11.14L40.36 11.14L38.74 12.92ZM50.87 22L45.29 22L45.29 13.47L50.83 13.47L50.83 14.66L46.77 14.66L46.77 17.02L50.28 17.02L50.28 18.19L46.77 18.19L46.77 20.82L50.87 20.82L50.87 22Z" fill="#FFFFFF"/><path class="svg__text" d="M79.49 22L77.11 22L77.11 13.60L80.95 13.60Q82.09 13.60 82.93 13.98Q83.77 14.35 84.23 15.06Q84.68 15.76 84.68 16.71L84.68 16.71Q84.68 17.66 84.23 18.35Q83.77 19.05 82.93 19.42Q82.09 19.80 80.95 19.80L80.95 19.80L79.49 19.80L79.49 22ZM79.49 15.47L79.49 17.93L80.81 17.93Q81.54 17.93 81.91 17.61Q82.28 17.29 82.28 16.71L82.28 16.71Q82.28 16.12 81.91 15.80Q81.54 15.47 80.81 15.47L80.81 15.47L79.49 15.47ZM90.85 22L88.43 22L92.14 13.60L94.48 13.60L98.20 22L95.73 22L95.07 20.37L91.52 20.37L90.85 22ZM93.29 15.93L92.21 18.61L94.37 18.61L93.29 15.93ZM104.73 22L102.35 22L102.35 13.60L106.19 13.60Q107.34 13.60 108.17 13.98Q109.01 14.35 109.47 15.06Q109.93 15.76 109.93 16.71L109.93 16.71Q109.93 17.62 109.50 18.30Q109.07 18.98 108.28 19.36L108.28 19.36L110.09 22L107.55 22L106.02 19.77L104.73 19.77L104.73 22ZM104.73 15.47L104.73 17.93L106.05 17.93Q106.78 17.93 107.15 17.61Q107.52 17.29 107.52 16.71L107.52 16.71Q107.52 16.12 107.15 15.79Q106.78 15.47 106.05 15.47L106.05 15.47L104.73 15.47Z" fill="#FFFFFF" x="75.92"/></svg>